<?xml version="1.0" encoding="utf-8"?>
<!-- Generator: Adobe Illustrator 24.1.2, SVG Export Plug-In . SVG Version: 6.00 Build 0)  -->
<svg xmlns="http://www.w3.org/2000/svg" xmlns:xlink="http://www.w3.org/1999/xlink" version="1.1" x="0px" y="0px" width="1800px" height="1709.9px" viewBox="0 0 1800 1709.9" style="enable-background:new 0 0 1800 1709.9;" xml:space="preserve">
<style type="text/css">
	.st0{fill:#F7F7F7;}
	.st1{fill:#FFFFFF;}
	.st2{fill:#EE3124;}
</style>
<g>
	<path class="st0" d="M469.5,29.4c15.1-2,30.4-4.5,45.6-6.1l5.6-22.7c-25.1,3-51.4,2.8-76.6,2.8c-30.9,0-64.8,0.6-95.9-2.8l5.2,22.7   c15.1,1.7,30.2,3.4,45.4,5.6c1.3,22.7,1.9,92.9,1.9,106.2v25.9c0,39.9-0.4,112.5-2,137.5c-15.1,2.6-30.5,4.7-45.8,5.6l-4.3,22.5   c25.3-1.5,51-2.4,76.6-2.4c30.9,0,64.1-0.4,95.2,2.6l-5.4-22.5c-15.1-1.5-30.5-3-45.6-5.6c-1.1-17.9-1.7-82-1.7-134.1v-27   C467.9,89.1,468.4,44.8,469.5,29.4z M222.2,14.3C199.3,5,157.6,1,109.7,1L0.4,1.6l3.2,21.6c15.5,1.5,31.5,2,46.8,5.2   c1.5,22,1.7,91.1,1.7,103.9v17.5c0,38-0.2,121.8-1.7,148.6c-15.5,2.4-30.7,3.7-46.2,5.8L0,326.6c29.1-2,58.9-2.4,88.1-2.4   c30.7,0,61.8,0.4,92.4,2.4l-5.2-22.4c-18.3-1.9-36.7-3.4-55.1-5.8c-1.3-24-1.7-111.9-1.7-146.2v-18.6c0-33.3,0.4-86.4,1.7-106.4   c17.5,0.6,36.3,3.2,48.1,8.9c19.9,9.9,31.9,29.4,31.9,54c0,49-28.9,71.2-68.5,81l-2.8,23.8C194.1,186,269.3,151,269.3,74.4   C269.3,61.4,264.3,32,222.2,14.3z M1669.8,156.6c32.6-20.1,63.9-55.9,63.9-85.7c0-27.6-16.8-46.2-41.9-56.1   C1660.5,2.3,1602.4,2,1561.2,2l-106.5,0.4l3.2,22c15.5,1.3,31.3,2.4,46.8,4.7c1.3,18.8,1.7,88.3,1.7,103v26.8   c0,42.3-0.6,118.1-1.9,139.9c-14.9,3-30.7,4.3-46,5.6l-4.3,22.5c28.5-2.6,57.9-2.6,86.4-2.6c27.6,0,56.1,0.4,83.6,2.6l-4.3-22.5   c-15.1-1.3-30.5-2.8-45.4-5.2c-1.1-24.6-1.9-84.9-1.9-111.4v-5.2c8.4-0.4,20.9-1.3,33-2.2c27.9,33.7,125,143.8,156.6,158.3l37.8-5   C1760.3,291.4,1700.9,209.1,1669.8,156.6z M1617.5,148c-15.5,5.8-30.9,7.5-44.9,7.8v-7.1c0-28.3,0.7-96.1,1.9-121.4   c69.3,1.9,89,33.5,89,55.9C1663.5,122.9,1635.2,141.5,1617.5,148z M1341,298.5c-19.9-39.1-46-110.1-57.9-143.2   c-15.3-41.7-36.3-102.3-44.1-127.4c10.2-2.2,20.7-3.5,30.9-4.7L1273,1c-28.7,2-57.9,2.4-86.8,2.4c-22.7,0-45.4-0.9-68-2.4l0.9,22.2   c10.8,1.3,21.6,2.4,32.4,4.5c-15.6,41.9-88.1,236.7-105.2,270.8c-13,2.6-26.1,4.5-39.3,5.8l-3.2,22.5c19.4-1.7,39.1-2.6,58.7-2.6   c26.1,0,52.5,0.7,78.6,2.4l-4.3-22.4c-12.1-1.3-24.4-2.4-36.1-5.2c5.4-32.6,23.3-96.5,28.5-112.3c19.6-2.2,73.4-4.7,92.8-5   c16.6,37.8,28.3,78.4,41.7,117.3c-13.8,2.6-27.4,3.9-41.2,5l-5.2,22.5c27.4-2.2,55.5-2.6,82.7-2.6c26.3,0,58.3-1.3,84.7,3.2   l-3.4-22.9C1367.8,302.8,1354.4,301.1,1341,298.5z M1139.2,154c7.3-21.2,25.1-69.5,37.8-104.7c9.7,29.4,27.2,78.6,36.3,106   L1139.2,154z M864.1,79.5c13.8-15.6,27.8-31.9,43.2-46.2l3.5-3.5c10.6-2.6,20.9-4.5,31.3-7.3l2-21.6c-17.7,1.5-35.2,2.6-52.9,2.6   c-23.3,0-46.4-0.6-69.5-2.6l4.3,22.2c6.3,0.9,12.7,2,19.2,3.2l7.8,1.5c-13,22.5-43,65.6-57.9,85.9c-14-18.8-46.2-66.1-58.3-85.7   c10.8-2,21.4-3.4,32.2-4.7l6.5-22.2c-27.6,1.1-55.3,2.2-82.9,2.2c-24,0-50.7,0.7-74.9-3.4l3.2,22.7c10.2,2,20.9,3.4,30.9,6.3   c9.9,10.8,28.5,34.1,48.4,59.6c19.6,25.1,40.2,52.2,55.5,71.7c-19.9,25.5-95.4,125.5-114.2,138.2c-9.1,3.5-19.7,4.5-29.6,6   l-7.5,22.4c19.2-1.5,38-2.6,57.2-2.6c25.1,0,62.8,1.7,69.8,1.7h7.3l-3.2-21.6c-11-1.1-21.8-2.8-32.6-4.8   c17.3-33.5,55.7-93.7,71.3-114.9c11.4,13.6,31.5,39.1,54.9,66.7c28.3,32.8,60,67.2,94.8,93.7l35.6-7.1   c-50.1-65.6-97.8-133.4-146.4-200C822.9,126.8,843.8,102.4,864.1,79.5z"/>
	<path class="st1" d="M1155.8,1586.2v117.3l-218.2,3.8l1.3-135c-13.6,9.4-34.8,24.3-50.7,32.2c-48.3,24-100.2,37.2-146.1,37.2   c-44,0-108.2-9.1-172.8-47.9l22.7,39.1l-28.7,18.2c-55.7,36-127.5,58.8-185.8,58.8c-49.4,0-131.4-15-201.8-65.6   c-60.1-43.2-132.5-129.5-132.5-275c0-65.5,21.8-125,57.2-176.8c30.9-45.2,72.8-86.2,124.5-112.1c36.1-18.1,74.4-30.3,117.3-34.1   L131.2,507.4l9.5-14.2c22.2-33.4,54.1-63.8,89.8-85.5c41.7-25.5,87.7-39,133.2-39c9.2,0,18.5,0.6,27.7,1.6   c85.7,10.1,147.5,52.6,183.8,96.3c43.7-43.8,122-99.5,237.5-99.5c12.3,0,24.9,0.7,37.4,1.9c95.8,9.8,153,49.7,192.2,86.9l2.5-35.3   c53-53,179.1-78.2,282.6-29s164,159.3,152.6,281.3c-5.4,58.2-39.1,128.7-106,181.7h66.9l18.9,71.9l5-118.6l234.6,3.8l-35.3,695.1   l-201.8,1.3l-26.6-53.1l-2.4,88.4l-85.8-5l47.9,95.9l-175.4,71.9L1155.8,1586.2z"/>
	<path class="st2" d="M830.3,442c49.2,5,107.2,53,124.9,73.2c31.5,3.8,80.7,27.8,94.6,44.2c-1.3,8.8-26.5,39.1-32.8,45.4   c10.1,11.4,40.4,99.7,37.8,167.8c-16.4-50.5-63.1-100.9-88.3-119.8c-11.4,20.2-111,94.6-126.2,107.2c17.7-50.5,29-132.5,27.8-167.8   c-58-31.5-142.6-49.2-172.8-45.4c40.4-24,131.2-37.8,166.5-37.8C861.8,481.1,846.7,445.8,830.3,442z M1443.4,667.8   c-9.6,103.4-111,206.9-223.3,206.9c-2.5,39.1-7.6,136.2-7.6,136.2s-160.2,2.5-159,2.5c1.3,0,7.6-148.9,7.6-148.9   c-45.4,54.2-132.5,132.5-280.1,116.1c-147.6-16.4-215.7-119.8-242.2-179.1c-7.6,15.1-54.2,45.4-68.1,49.2   c5,12.6,49.2,128.7,49.2,128.7L376.1,1045L168,511.4c40.4-60.6,123.6-119.8,219.5-108.5s160.2,69.4,184.2,117.3   c36.6-47.9,127.4-133.7,275-118.6s200.6,100.9,228.3,138.8l3.8-99.7c66.9-42.9,146.3-56.8,235.9-15.1S1453.5,559.3,1443.4,667.8z    M450.6,604.8c-8.8-26.5-53-65.6-97.1-54.2l64.3,162.7C465.7,676.7,459.4,631.2,450.6,604.8z M880.7,958   c-177.9,0-275-132.5-309.1-200.6c-2.5,8.8-11.4,20.2-17.7,26.5C607,906.3,728.1,985.7,880.7,958z M1073.8,566.9   c-29-50.5-95.9-129.9-195.5-147.6s-191.8,13.9-233.4,49.2c-42.9,53-40.4,182.9,47.9,288.9S935,937.8,1047.3,859.6l15.1-22.7   L1073.8,566.9z M1299.6,638.8c0-36.6-22.7-74.4-66.9-88.3l-7.6,176.6C1271.8,719.6,1299.6,675.4,1299.6,638.8z M1661.6,845.7   l-31.5,627H1480l-70.6-153.9l-8.8,186.7l-98.4-3.8l60.6,112.3l-137.5,61.8l-90.8-189.2h-7.6l1.3,190.5l-162.7-2.5v-172.8   c-34.1,53-136.2,107.2-223.3,107.2s-301.5-64.3-301.5-306.6c0-124.8,73.3-211.9,161.5-256.1c71.4-35.8,153.4-42.7,208.2-25.2   c113.6,36.3,147.6,89.6,157.7,100.9v-39.1c0,0,64.3-54.2,152.6-45.4s123.6,47.9,123.6,47.9l7.6-189.2l170.3-1.3l60.6,159l5-208.2   H1661.6z M851.7,1308.7c0-68.1-63.1-112.3-113.5-112.3c-58,0-113.5,47.9-113.5,114.8s58,113.5,113.5,113.5   C793.7,1424.8,851.7,1376.8,851.7,1308.7z M1189.8,1260.8c0-26.5-25.2-79.5-68.1-82c-2.5,0,2.5,167.8,2.5,167.8   C1172.2,1333.9,1189.8,1287.3,1189.8,1260.8z M451.4,1462.4l93.9,161.2c-46.3,30-108.4,52.3-164.2,52.3   c-87,0-301.5-64.3-301.5-306.6c0-124.8,73.3-211.9,161.5-256.1c71.4-35.8,153.4-42.7,208.2-25.2c1.2,0.4,2.3,0.7,3.5,1.1   l-42.6,179.9c-11-3.7-22.2-5.7-32.7-5.7c-58,0-113.5,47.9-113.5,114.8s58,113.5,113.5,113.5   C403.6,1491.6,430.5,1480.9,451.4,1462.4z"/>
</g>
</svg>
